<svg xmlns="http://www.w3.org/2000/svg" viewBox="0 0 500 500">
  <!-- Arc segments — city skyline silhouettes arranged in a C-shape -->
  <path d="M316.8,382.0 L344.8,437.4 A210,210 0 0,1 338.5,440.4 L346.1,456.8 A228,228 0 0,1 339.1,459.9 L336.0,452.5 A220,220 0 0,1 329.2,455.3 L327.4,450.6 A215,215 0 0,1 320.6,453.1 L319.0,448.4 A210,210 0 0,1 312.3,450.6 L312.3,450.6 L293.9,391.3 A148,148 0 0,0 316.8,382.0Z" fill="#2563eb"/>
  <path d="M288.2,393.0 L306.2,460.6 A218,218 0 0,1 299.2,462.4 L302.3,476.0 A232,232 0 0,1 294.7,477.7 L293.4,470.8 A225,225 0 0,1 285.9,472.1 L283.5,457.3 A210,210 0 0,1 276.6,458.3 L277.2,463.3 A215,215 0 0,1 270.0,464.1 L269.6,459.1 L263.8,397.4 A148,148 0 0,0 288.2,393.0Z" fill="#2563eb"/>
  <path d="M257.9,397.8 L261.2,459.7 A210,210 0 0,1 254.1,460.0 L254.4,472.0 A222,222 0 0,1 246.9,472.0 L246.8,480.0 A230,230 0 0,1 239.1,479.7 L239.7,467.8 A218,218 0 0,1 232.4,467.3 L233.0,459.3 A210,210 0 0,1 226.0,458.6 L226.0,458.6 L233.1,397.0 A148,148 0 0,0 257.9,397.8Z" fill="#2563eb"/>
  <path d="M227.2,396.2 L216.9,462.4 A215,215 0 0,1 209.8,461.2 L210.8,456.3 A210,210 0 0,1 203.9,454.9 L199.9,472.4 A228,228 0 0,1 192.5,470.6 L190.7,477.4 A235,235 0 0,1 183.1,475.3 L187.4,460.9 A220,220 0 0,1 180.4,458.7 L183.5,449.2 L203.2,390.4 A148,148 0 0,0 227.2,396.2Z" fill="#2563eb"/>
  <path d="M197.6,388.4 L171.3,457.6 A222,222 0 0,1 164.4,454.8 L161.4,462.2 A230,230 0 0,1 154.3,459.1 L160.5,445.5 A215,215 0 0,1 154.0,442.4 L156.3,437.9 A210,210 0 0,1 150.0,434.7 L142.9,447.9 A225,225 0 0,1 136.3,444.2 L143.9,431.2 L175.2,377.7 A148,148 0 0,0 197.6,388.4Z" fill="#2563eb"/>
  <path d="M170.2,374.6 L136.7,426.8 A210,210 0 0,1 130.8,422.9 L126.3,429.5 A218,218 0 0,1 120.4,425.3 L112.0,436.5 A232,232 0 0,1 105.9,431.8 L112.1,424.0 A222,222 0 0,1 106.3,419.2 L112.1,412.4 A213,213 0 0,1 106.8,407.7 L108.8,405.4 L150.5,359.6 A148,148 0 0,0 170.2,374.6Z" fill="#2563eb"/>
  <path d="M146.2,355.5 L95.7,406.8 A220,220 0 0,1 90.5,401.5 L79.6,411.9 A235,235 0 0,1 74.3,406.1 L93.0,389.5 A210,210 0 0,1 88.4,384.1 L74.6,395.6 A228,228 0 0,1 69.8,389.6 L77.7,383.5 A218,218 0 0,1 73.3,377.7 L79.8,373.0 L130.0,336.7 A148,148 0 0,0 146.2,355.5Z" fill="#2563eb"/>
  <path d="M126.7,331.8 L70.8,368.8 A215,215 0 0,1 66.9,362.8 L58.4,368.0 A225,225 0 0,1 54.6,361.5 L50.2,364.0 A230,230 0 0,1 46.5,357.2 L64.2,347.9 A210,210 0 0,1 61.0,341.6 L50.2,346.9 A222,222 0 0,1 47.1,340.1 L58.1,335.2 L114.7,310.1 A148,148 0 0,0 126.7,331.8Z" fill="#2563eb"/>
  <path d="M112.4,304.6 L54.8,327.5 A210,210 0 0,1 52.3,320.9 L35.4,327.0 A228,228 0 0,1 32.9,319.7 L42.4,316.7 A218,218 0 0,1 40.3,309.7 L26.9,313.5 A232,232 0 0,1 24.9,306.0 L41.4,301.9 A215,215 0 0,1 39.7,294.9 L44.6,293.8 L105.3,280.9 A148,148 0 0,0 112.4,304.6Z" fill="#2563eb"/>
  <path d="M104.1,275.1 L28.2,288.1 A225,225 0 0,1 27.1,280.7 L37.0,279.3 A215,215 0 0,1 36.1,272.1 L41.1,271.6 A210,210 0 0,1 40.5,264.6 L20.6,266.0 A230,230 0 0,1 20.2,258.3 L30.1,257.9 A220,220 0 0,1 30.0,250.6 L40.0,250.5 L102.0,250.4 A148,148 0 0,0 104.1,275.1Z" fill="#2563eb"/>
  <path d="M102.1,244.4 L32.2,241.8 A218,218 0 0,1 32.5,234.5 L18.6,233.5 A232,232 0 0,1 19.3,225.8 L29.2,226.8 A222,222 0 0,1 30.1,219.4 L42.0,221.1 A210,210 0 0,1 43.1,214.1 L25.3,211.1 A228,228 0 0,1 26.8,203.6 L44.4,207.2 L105.1,219.9 A148,148 0 0,0 102.1,244.4Z" fill="#2563eb"/>
  <path d="M106.4,214.1 L46.3,199.0 A210,210 0 0,1 48.1,192.2 L38.5,189.5 A220,220 0 0,1 40.6,182.4 L26.4,177.8 A235,235 0 0,1 28.9,170.4 L38.3,173.7 A225,225 0 0,1 41.0,166.7 L50.3,170.4 A215,215 0 0,1 53.1,163.8 L57.6,165.8 L114.4,190.6 A148,148 0 0,0 106.4,214.1Z" fill="#2563eb"/>
  <path d="M116.9,185.2 L43.2,149.4 A230,230 0 0,1 46.7,142.5 L64.4,151.8 A210,210 0 0,1 67.8,145.7 L57.3,139.7 A222,222 0 0,1 61.1,133.3 L64.5,135.4 A218,218 0 0,1 68.5,129.3 L60.2,123.7 A228,228 0 0,1 64.5,117.4 L79.1,127.9 L129.6,164.0 A148,148 0 0,0 116.9,185.2Z" fill="#2563eb"/>
  <path d="M133.1,159.2 L80.2,118.1 A215,215 0 0,1 84.7,112.5 L77.1,106.1 A225,225 0 0,1 82.0,100.4 L93.2,110.3 A210,210 0 0,1 97.9,105.2 L82.0,90.0 A232,232 0 0,1 87.5,84.4 L95.9,93.0 A220,220 0 0,1 101.2,87.9 L108.0,95.3 L149.9,141.0 A148,148 0 0,0 133.1,159.2Z" fill="#2563eb"/>
  <path d="M154.4,137.0 L106.6,80.6 A222,222 0 0,1 112.3,75.9 L114.8,79.0 A218,218 0 0,1 120.6,74.6 L113.5,64.9 A230,230 0 0,1 119.8,60.4 L131.1,76.9 A210,210 0 0,1 137.0,73.0 L128.9,60.4 A225,225 0 0,1 135.3,56.4 L142.9,69.3 L174.6,122.7 A148,148 0 0,0 154.4,137.0Z" fill="#2563eb"/>
  <path d="M179.7,119.8 L150.3,65.2 A210,210 0 0,1 156.5,61.9 L148.5,45.8 A228,228 0 0,1 155.4,42.5 L160.8,54.4 A215,215 0 0,1 167.4,51.5 L159.7,33.0 A235,235 0 0,1 167.0,30.1 L173.0,46.0 A218,218 0 0,1 179.9,43.6 L182.5,51.1 L202.4,109.9 A148,148 0 0,0 179.7,119.8Z" fill="#2563eb"/>
  <path d="M208.1,108.1 L187.7,39.0 A220,220 0 0,1 194.8,37.0 L197.3,46.7 A210,210 0 0,1 204.2,45.1 L199.4,23.6 A232,232 0 0,1 207.0,22.0 L208.8,31.9 A222,222 0 0,1 216.2,30.6 L217.2,37.5 A215,215 0 0,1 224.4,36.5 L225.0,41.5 L232.3,103.1 A148,148 0 0,0 208.1,108.1Z" fill="#2563eb"/>
  <path d="M238.3,102.5 L232.2,25.7 A225,225 0 0,1 239.7,25.2 L239.4,20.2 A230,230 0 0,1 247.1,20.0 L247.4,40.0 A210,210 0 0,1 254.4,40.0 L254.6,32.0 A218,218 0 0,1 261.9,32.3 L262.4,22.3 A228,228 0 0,1 270.1,22.9 L268.5,40.8 L263.0,102.6 A148,148 0 0,0 238.3,102.5Z" fill="#2563eb"/>
  <path d="M268.9,103.2 L277.5,36.8 A215,215 0 0,1 284.6,37.8 L285.8,30.9 A222,222 0 0,1 293.1,32.2 L294.2,26.3 A228,228 0 0,1 301.7,27.9 L297.6,45.5 A210,210 0 0,1 304.5,47.2 L310.2,25.9 A232,232 0 0,1 317.6,28.1 L311.2,49.1 L293.1,108.4 A148,148 0 0,0 268.9,103.2Z" fill="#2563eb"/>
  <path d="M298.8,110.3 L325.2,34.7 A228,228 0 0,1 332.3,37.4 L327.6,49.5 A215,215 0 0,1 334.3,52.2 L336.3,47.6 A220,220 0 0,1 343.0,50.6 L347.2,41.6 A230,230 0 0,1 354.2,44.9 L345.1,62.8 A210,210 0 0,1 351.3,66.1 L351.3,66.1 L321.4,120.4 A148,148 0 0,0 298.8,110.3Z" fill="#2563eb"/>
  <!-- Text: GLOBAL SHAPERS COMMUNITY in gray, JEDDAH in blue -->
  <text x="338" y="212" text-anchor="middle" font-family="Arial, 'Helvetica Neue', Helvetica, sans-serif" font-size="42" font-weight="600" letter-spacing="2" fill="#9CA3AF">GLOBAL</text>
  <text x="338" y="268" text-anchor="middle" font-family="Arial, 'Helvetica Neue', Helvetica, sans-serif" font-size="42" font-weight="600" letter-spacing="1" fill="#9CA3AF">SHAPERS</text>
  <text x="338" y="324" text-anchor="middle" font-family="Arial, 'Helvetica Neue', Helvetica, sans-serif" font-size="36" font-weight="600" letter-spacing="1" fill="#9CA3AF">COMMUNITY</text>
  <text x="338" y="384" text-anchor="middle" font-family="Arial, 'Helvetica Neue', Helvetica, sans-serif" font-size="48" font-weight="700" letter-spacing="2" fill="#2563EB">JEDDAH</text>
</svg>
